<?xml version="1.0" standalone="no"?>
<!DOCTYPE svg PUBLIC "-//W3C//DTD SVG 20010904//EN"
 "http://www.w3.org/TR/2001/REC-SVG-20010904/DTD/svg10.dtd">
<svg version="1.0" xmlns="http://www.w3.org/2000/svg"
 width="164.000000pt" height="136.000000pt" viewBox="0 0 164.000000 136.000000"
 preserveAspectRatio="xMidYMid meet">

<g transform="translate(0.000000,136.000000) scale(0.100000,-0.100000)"
fill="#000000" stroke="none">
<path d="M692 1330 c-212 -56 -375 -206 -443 -408 -12 -35 -19 -64 -18 -66 2
-1 17 -6 34 -12 22 -7 39 -26 63 -70 24 -43 48 -69 85 -94 28 -19 72 -55 96
-80 43 -44 44 -44 25 -11 -10 19 -62 80 -116 136 l-96 100 24 51 c27 57 58 94
80 94 8 0 12 -5 9 -10 -10 -17 5 -50 23 -50 10 0 32 -13 49 -29 28 -25 32 -35
38 -107 11 -139 34 -255 58 -295 18 -30 26 -36 35 -27 16 16 16 95 0 100 -26
9 6 28 48 28 32 0 44 -4 44 -15 0 -8 -4 -15 -10 -15 -5 0 -10 -24 -10 -52 l1
-53 23 28 c13 16 28 25 37 22 11 -4 21 9 36 45 12 28 28 50 36 50 9 0 24 -24
37 -58 31 -78 40 -84 40 -29 0 26 -4 47 -10 47 -5 0 -10 7 -10 15 0 15 10 19
43 16 18 -2 25 18 7 20 -5 1 -13 2 -17 3 -5 1 -22 5 -39 10 -45 10 -169 142
-181 192 l-9 39 -72 3 c-73 3 -73 3 -70 30 2 19 9 28 26 30 22 3 22 6 22 137
0 131 0 134 -22 137 -17 2 -23 10 -23 28 l0 25 120 3 c91 2 130 -1 162 -13 46
-18 96 -68 117 -119 9 -21 23 -36 39 -40 35 -8 125 -110 136 -154 14 -51 7
-176 -13 -239 -17 -53 -48 -93 -73 -93 -10 0 -11 -5 -5 -17 5 -10 9 -41 10
-70 2 -42 -2 -54 -17 -63 -11 -6 -80 -9 -163 -8 -79 1 -123 4 -98 7 28 4 40 9
33 14 -23 14 -14 27 18 27 26 0 31 -3 26 -20 -5 -19 0 -20 82 -20 54 0 92 5
99 12 17 17 15 48 -3 48 -18 0 -19 4 -3 30 18 29 -3 45 -62 46 -39 0 -47 -2
-39 -12 5 -7 9 -34 7 -61 -5 -72 -28 -69 -60 9 -14 34 -30 64 -35 65 -5 2 -23
-27 -39 -64 -21 -50 -30 -62 -32 -46 -4 28 -19 30 -27 3 -4 -11 -15 -20 -27
-20 -19 0 -20 5 -16 63 4 63 3 64 -22 64 -25 0 -26 -2 -22 -57 2 -32 -1 -66
-6 -77 -8 -15 -5 -32 17 -79 37 -77 64 -170 56 -195 -4 -11 -2 -19 4 -19 6 0
11 -9 11 -19 0 -25 19 -31 101 -31 59 0 69 3 69 18 0 30 21 93 29 88 10 -6 73
133 66 144 -3 4 1 10 8 13 6 2 29 38 51 78 67 129 139 204 252 265 67 37 84
53 84 79 0 13 6 28 14 34 16 14 7 69 -24 139 -12 27 -17 54 -13 73 7 37 -28
90 -112 166 -151 137 -378 194 -573 143z m345 -142 c-3 -8 -6 -5 -6 6 -1 11 2
17 5 13 3 -3 4 -12 1 -19z m-29 -655 c-5 -26 -38 -29 -38 -4 0 15 6 21 21 21
14 0 19 -5 17 -17z m-169 -42 c-15 -5 -22 6 -14 19 6 9 10 9 16 -1 5 -8 4 -15
-2 -18z m176 -11 c8 -13 -13 -40 -31 -40 -8 0 -14 10 -14 25 0 18 5 25 19 25
11 0 23 -5 26 -10z m-318 -56 c-3 -3 -12 -4 -19 -1 -8 3 -5 6 6 6 11 1 17 -2
13 -5z"/>
<path d="M980 529 c0 -5 5 -7 10 -4 6 3 10 8 10 11 0 2 -4 4 -10 4 -5 0 -10
-5 -10 -11z"/>
<path d="M980 470 c0 -5 5 -10 10 -10 6 0 10 5 10 10 0 6 -4 10 -10 10 -5 0
-10 -4 -10 -10z"/>
<path d="M580 1211 c0 -5 10 -11 23 -13 22 -3 22 -5 22 -153 0 -148 0 -150
-22 -153 -47 -7 -21 -22 40 -23 34 -1 65 -1 69 0 4 0 10 -11 13 -27 20 -93 76
-144 165 -150 53 -4 59 -7 65 -31 10 -39 34 -61 70 -61 37 0 65 26 65 61 l0
24 -24 -28 c-25 -29 -30 -27 -56 22 -9 17 -9 21 0 16 7 -4 10 -2 8 6 -1 8 10
31 26 51 15 21 32 56 37 79 10 45 2 112 -12 103 -9 -5 -11 1 -13 36 -1 8 -6
15 -11 15 -6 0 -23 10 -39 23 -16 12 -24 22 -19 22 5 0 13 -3 19 -7 5 -5 1 0
-10 10 -13 12 -28 16 -45 12 -20 -5 -23 -4 -13 8 15 17 5 47 -20 65 -19 14
-25 38 -6 26 7 -4 8 -3 4 5 -4 6 -11 9 -16 6 -10 -6 -32 19 -24 28 3 3 -8 13
-25 21 -22 12 -60 16 -151 16 -67 0 -120 -4 -120 -9z m229 -27 c26 -19 51 -71
51 -108 0 -16 -7 -26 -22 -30 -47 -13 -108 -88 -108 -133 0 -26 -18 -39 -33
-24 -8 8 -8 11 1 11 9 0 12 40 12 150 l0 150 38 0 c21 0 48 -7 61 -16z m56 -2
c-3 -3 -11 0 -18 7 -9 10 -8 11 6 5 10 -3 15 -9 12 -12z m-9 -205 c-3 -18 -17
-49 -31 -67 -29 -39 -30 -34 -10 34 24 77 54 102 41 33z m126 2 c26 -49 23
-209 -3 -209 -4 0 -14 10 -20 23 -10 19 -10 21 2 12 8 -5 6 -2 -4 8 -28 25
-73 22 -102 -8 -14 -13 -25 -31 -25 -40 0 -8 -4 -15 -8 -15 -4 0 -8 26 -9 59
l-2 58 40 19 c45 20 89 76 89 112 0 33 21 23 42 -19z m-48 -188 c10 -11 16
-31 14 -48 -3 -25 -7 -28 -47 -31 -24 -2 -49 2 -54 7 -8 8 -8 11 1 11 6 0 9 7
6 15 -8 21 22 65 45 65 10 0 26 -9 35 -19z"/>
<path d="M724 1158 c3 -13 6 -59 6 -102 l0 -79 23 33 c12 18 36 40 52 49 28
15 30 19 24 53 -8 52 -25 68 -71 68 -37 0 -40 -2 -34 -22z"/>
<path d="M1441 816 c3 -3 22 -17 44 -32 l40 -26 -29 31 c-17 17 -36 31 -45 31
-8 0 -12 -2 -10 -4z"/>
<path d="M828 453 c7 -3 16 -2 19 1 4 3 -2 6 -13 5 -11 0 -14 -3 -6 -6z"/>
</g>
</svg>
